<svg width="419" height="70" viewBox="0 0 419 70" fill="none" xmlns="http://www.w3.org/2000/svg">
<path d="M139.208 1.184C141.32 1.056 143.976 1.088 147.176 1.27999C155.88 2.24 162.888 5.344 168.2 10.592C173.384 15.776 176.488 22.592 177.512 31.04C177.768 33.6 177.768 36.384 177.512 39.392C177.512 39.52 177.512 39.648 177.512 39.776C176.552 47.776 173.608 54.304 168.68 59.36C166.312 61.664 163.624 63.584 160.616 65.12C156.648 67.04 152.168 68.288 147.176 68.864C144.488 69.12 141.48 69.12 138.152 68.864C137.96 68.864 137.8 68.864 137.672 68.864C128.584 67.776 121.448 64.608 116.264 59.36C111.272 54.368 108.296 47.84 107.336 39.776C107.08 37.344 107.08 34.592 107.336 31.52C107.336 31.328 107.336 31.168 107.336 31.04C107.848 27.2 108.648 23.936 109.736 21.248C112.616 13.888 117.448 8.54399 124.232 5.216C128.584 2.976 133.576 1.632 139.208 1.184ZM144.392 7.424C139.016 6.848 134.44 8.288 130.664 11.744C129.768 12.576 128.968 13.504 128.264 14.528C126.536 17.152 125.352 20.416 124.712 24.32C124.072 28.992 123.976 34.56 124.424 41.024C124.488 41.6 124.552 42.144 124.616 42.656C125.32 50.016 127.624 55.36 131.528 58.688C135.752 62.208 140.552 63.392 145.928 62.24C148.68 61.664 151.144 60.48 153.32 58.688C157.224 55.36 159.528 50.016 160.232 42.656C160.872 37.28 160.904 31.584 160.328 25.568C160.264 25.12 160.2 24.704 160.136 24.32C159.688 21.568 158.92 19.008 157.832 16.64C155.144 11.2 150.664 8.128 144.392 7.424Z" fill="#B571EB"/>
<path d="M37.048 1.184H42.424C45.048 1.376 47.48 1.92 49.72 2.816C52.216 3.648 54.616 4.928 56.92 6.65599C57.496 7.104 57.784 7.264 57.784 7.136C57.848 7.136 59.032 6.176 61.336 4.256C63.896 2.208 65.144 1.216 65.08 1.27999C65.592 0.959995 66.52 0.959995 67.864 1.27999C68.184 1.472 68.376 1.792 68.44 2.23999C68.504 2.88 68.536 7.04 68.536 14.72C68.536 23.232 68.44 27.616 68.248 27.872L67.864 28.064C67.608 28.192 66.584 28.256 64.792 28.256C63 28.256 61.976 28.192 61.72 28.064C61.272 27.744 61.016 27.264 60.952 26.624C60.44 21.888 58.744 17.792 55.864 14.336C54.584 12.928 53.368 11.808 52.216 10.976C50.168 9.504 48.024 8.608 45.784 8.288C42.968 7.712 39.512 7.872 35.416 8.768C31.32 9.6 28.024 11.072 25.528 13.184C24.056 14.336 22.968 15.488 22.264 16.64C19.576 20.544 18.232 26.688 18.232 35.072C18.232 43.84 19.736 50.176 22.744 54.08C23.064 54.528 23.448 54.976 23.896 55.424C24.728 56.256 25.272 56.768 25.528 56.96C28.024 59.072 31.32 60.544 35.416 61.376C39 62.144 42.168 62.368 44.92 62.048C50.744 61.472 55.256 58.88 58.456 54.272C60.376 51.584 61.432 48.608 61.624 45.344C61.624 44.256 61.848 43.584 62.296 43.328C62.552 43.2 63.48 43.136 65.08 43.136C66.68 43.136 67.608 43.2 67.864 43.328C68.312 43.648 68.536 44.384 68.536 45.536C68.344 48.608 67.64 51.392 66.424 53.888C63.416 60.16 58.264 64.576 50.968 67.136C48.28 68.096 45.432 68.704 42.424 68.96C40.376 69.152 37.784 69.12 34.648 68.864C26.584 67.968 19.864 65.664 14.488 61.952C9.368 58.176 5.72 53.472 3.544 47.84C2.584 45.408 1.848 42.528 1.336 39.2C1.08 36.896 1.08 34.272 1.336 31.328C1.336 31.136 1.336 30.976 1.336 30.848C1.976 25.728 3.576 21.12 6.136 17.024C10.04 10.688 15.96 6.17599 23.896 3.488C27.992 2.208 32.376 1.44 37.048 1.184ZM112.989 1.184C115.101 1.056 117.757 1.088 120.957 1.27999C129.661 2.24 136.669 5.344 141.981 10.592C147.165 15.776 150.269 22.592 151.293 31.04C151.549 33.6 151.549 36.384 151.293 39.392C151.293 39.52 151.293 39.648 151.293 39.776C150.333 47.776 147.389 54.304 142.461 59.36C140.093 61.664 137.405 63.584 134.397 65.12C130.429 67.04 125.949 68.288 120.957 68.864C118.269 69.12 115.261 69.12 111.933 68.864C111.741 68.864 111.581 68.864 111.453 68.864C102.365 67.776 95.2293 64.608 90.0453 59.36C85.0533 54.368 82.0773 47.84 81.1172 39.776C80.8613 37.344 80.8613 34.592 81.1172 31.52C81.1172 31.328 81.1172 31.168 81.1172 31.04C81.6293 27.2 82.4293 23.936 83.5173 21.248C86.3973 13.888 91.2293 8.54399 98.0133 5.216C102.365 2.976 107.357 1.632 112.989 1.184ZM118.173 7.424C112.797 6.848 108.221 8.288 104.445 11.744C103.549 12.576 102.749 13.504 102.045 14.528C100.317 17.152 99.1333 20.416 98.4933 24.32C97.8533 28.992 97.7573 34.56 98.2053 41.024C98.2693 41.6 98.3333 42.144 98.3973 42.656C99.1013 50.016 101.405 55.36 105.309 58.688C109.533 62.208 114.333 63.392 119.709 62.24C122.461 61.664 124.925 60.48 127.101 58.688C131.005 55.36 133.309 50.016 134.013 42.656C134.653 37.28 134.685 31.584 134.109 25.568C134.045 25.12 133.981 24.704 133.917 24.32C133.469 21.568 132.701 19.008 131.613 16.64C128.925 11.2 124.445 8.128 118.173 7.424Z" fill="black"/>
<path d="M180.744 5.6V2.144H194.184H207.72L208.2 2.432C208.84 2.752 209.384 3.488 209.832 4.64L219.912 28.64L229.416 51.296L238.92 28.64L249 4.64C249.448 3.488 250.024 2.752 250.728 2.432L251.208 2.144H264.552H277.992V5.6V9.056H272.808H267.624V35.072V61.088H272.808H277.992V64.544V68H276.84C276.904 68 273.96 67.936 268.008 67.808C262.952 67.744 257.896 67.744 252.84 67.808C246.888 67.936 243.944 68 244.008 68H242.856V64.544V61.088H248.04H253.224V35.456L253.128 10.016C252.808 10.656 248.84 20.128 241.224 38.432C233.288 57.248 229.256 66.72 229.128 66.848C228.808 67.36 228.328 67.712 227.688 67.904C227.048 68.096 225.864 68.128 224.136 68C223.88 68 223.688 67.968 223.56 67.904C222.92 67.712 222.44 67.36 222.12 66.848C221.992 66.72 218.056 57.44 210.312 39.008C202.568 20.448 198.696 11.2 198.696 11.264L198.6 35.936V36.128V61.088H203.784H208.968V64.544V68H208.008C208.072 68 205.736 67.936 201 67.808C196.904 67.744 192.808 67.744 188.712 67.808C183.976 67.936 181.64 68 181.704 68H180.744V64.544V61.088H185.928H191.112V35.072V9.056H185.928H180.744V5.6ZM285.557 5.6V2.144H306.101C320.181 2.144 327.509 2.17599 328.085 2.23999C336.021 2.81599 342.005 5.216 346.037 9.44C348.533 12.128 350.101 15.296 350.741 18.944C350.869 19.52 350.933 20.512 350.933 21.92C350.933 23.712 350.773 25.184 350.453 26.336C349.685 29.792 347.893 32.768 345.077 35.264C341.493 38.336 336.949 40.256 331.445 41.024C329.717 41.28 325.813 41.408 319.733 41.408H311.957V51.2V61.088H317.141H322.325V64.544V68H321.077C321.141 68 318.069 67.936 311.861 67.808C306.549 67.744 301.237 67.744 295.924 67.808L286.805 68H285.557V64.544V61.088H290.741H295.924V35.072V9.056H290.741H285.557V5.6ZM325.781 9.248C325.397 9.184 322.837 9.12 318.101 9.056H311.381V22.016V35.072H317.141C322.773 35.072 326.421 34.816 328.085 34.304C330.261 33.664 331.765 32.672 332.597 31.328C333.557 29.664 334.005 26.208 333.941 20.96C333.877 17.952 333.685 15.84 333.365 14.624C333.109 13.536 332.661 12.672 332.021 12.032C330.868 10.688 328.789 9.76 325.781 9.248Z" fill="black"/>
<path d="M377.688 1.088H383.448H383.544C384.376 1.408 384.856 1.76 384.984 2.144L408.024 60.608L408.216 61.088H413.4H418.488V64.544V68H417.336L409.08 67.808C404.408 67.744 399.352 67.744 393.912 67.808L384.6 68H383.352V64.544V61.088H387.48L391.608 60.992L389.88 56.672L388.152 52.352H376.344C368.472 52.352 364.536 52.384 364.536 52.448L362.808 56.768L361.176 60.992C361.176 61.056 362.552 61.088 365.304 61.088H369.336V64.544V68H368.376L361.272 67.808C357.112 67.744 353.272 67.744 349.752 67.808L343.704 68H342.84V64.544V61.088H347.928H353.112L353.304 60.608L376.344 2.144C376.536 1.824 376.984 1.472 377.688 1.088ZM380.952 33.92L376.44 22.4H376.344L367.32 45.44H376.44L385.464 45.344L380.952 33.92Z" fill="black"/>
</svg>
